{"title":"Ice Age - Trilogy [DVDRip]","uid":6123548,"size":2195597057,"categoryP":"video","categoryS":"movies","magnet":"?xt=urn:btih:9f08c5291fc5b5e2b73bb7ae39797fc1993b4317&amp;dn=Ice+Age+-+Trilogy+%5BDVDRip%5D&amp;tr=udp%3A%2F%2Ftracker.openbittorrent.com%3A80&amp;tr=udp%3A%2F%2Fopen.demonii.com%3A1337&amp;tr=udp%3A%2F%2Ftracker.coppersurfer.tk%3A6969&amp;tr=udp%3A%2F%2Fexodus.desync.com%3A6969","seeders":0,"leechers":1,"uploader":"ua3","files":-1,"time":1295849413,"description":"Ice Age Trilogy by ua3\n\nIce Age - 2002\n\nGeneral\nComplete name                    : Ice.Age.Trilogy.by.ua3\\Ice Age\\[1] Ice Age [2002].avi\nFormat                           : AVI\nFormat/Info                      : Audio Video Interleave\nFile size                        : 695 MiB\nDuration                         : 1h 21mn\nOverall bit rate                 : 1 196 Kbps\nWriting application              : Nandub v1.0rc2\nWriting library                  : Nandub build 1853/release\n\nVideo\nID                               : 0\nFormat                           : MPEG-4 Visual\nCodec ID                         : DIV3\nCodec ID/Hint                    : DivX 3 Low\nDuration                         : 1h 21mn\nBit rate                         : 1 066 Kbps\nWidth                            : 576 pixels\nHeight                           : 304 pixels\nDisplay aspect ratio             : 1.895\nFrame rate                       : 23.976 fps\nColor space                      : YUV\nChroma subsampling               : 4:2:0\nBit depth                        : 8 bits\nCompression mode                 : Lossy\nBits/(Pixel*Frame)               : 0.254\nStream size                      : 619 MiB (89%)\n\nAudio\nID                               : 1\nFormat                           : MPEG Audio\nFormat version                   : Version 1\nFormat profile                   : Layer 3\nMode                             : Joint stereo\nMode extension                   : MS Stereo\nCodec ID                         : 55\nCodec ID/Hint                    : MP3\nDuration                         : 1h 21mn\nBit rate mode                    : Variable\nBit rate                         : 118 Kbps\nNominal bit rate                 : 128 Kbps\nChannel(s)                       : 2 channels\nSampling rate                    : 48.0 KHz\nCompression mode                 : Lossy\nStream size                      : 68.4 MiB (10%)\nAlignment                        : Aligned on interleaves\nInterleave, duration             : 24 ms (0.58 video frame)\nInterleave, preload duration     : 150 ms\nWriting library                  : LAME3.92 \nEncoding settings                : -m j -V 4 -q 2 -lowpass 15.3 --abr 128\n\n\n\n\nIce Age - The Meltdown\n\nGeneral\nComplete name                    : Ice.Age.Trilogy.by.ua3\\[2] Ice Age - The Meltdown\\Ice Age 2 - The Meltdown [2006].avi\nFormat                           : AVI\nFormat/Info                      : Audio Video Interleave\nFile size                        : 700 MiB\nDuration                         : 1h 26mn\nOverall bit rate                 : 1 126 Kbps\nWriting application              : VirtualDubMod 1.5.10.1 (build 2366/release)\nWriting library                  : VirtualDubMod build 2366/release\n\nVideo\nID                               : 0\nFormat                           : MPEG-4 Visual\nFormat profile                   : Advanced Simple@L5\nFormat settings, BVOP            : 2\nFormat settings, QPel            : No\nFormat settings, GMC             : No warppoints\nFormat settings, Matrix          : Default (H.263)\nCodec ID                         : DX50\nCodec ID/Hint                    : DivX 5\nDuration                         : 1h 26mn\nBit rate                         : 924 Kbps\nWidth                            : 520 pixels\nHeight                           : 274 pixels\nDisplay aspect ratio             : 1.898\nFrame rate                       : 25.000 fps\nColor space                      : YUV\nChroma subsampling               : 4:2:0\nBit depth                        : 8 bits\nScan type                        : Progressive\nCompression mode                 : Lossy\nBits/(Pixel*Frame)               : 0.259\nStream size                      : 574 MiB (82%)\nWriting library                  : XviD 1.0.3 (UTC 2004-12-20)\n\nAudio\nID                               : 1\nFormat                           : AC-3\nFormat/Info                      : Audio Coding 3\nMode extension                   : CM (complete main)\nCodec ID                         : 2000\nDuration                         : 1h 26mn\nBit rate mode                    : Constant\nBit rate                         : 192 Kbps\nChannel(s)                       : 2 channels\nChannel positions                : Front: L R\nSampling rate                    : 48.0 KHz\nBit depth                        : 16 bits\nCompression mode                 : Lossy\nStream size                      : 119 MiB (17%)\nAlignment                        : Split accross interleaves\nInterleave, duration             : 40 ms (1.00 video frame)\nInterleave, preload duration     : 500 ms\n\n\n\nIce Age - The Dawn Of Dinosaurs\n\nGeneral\nComplete name                    : Ice.Age.Trilogy.by.ua3\\[3] Ice Age - Dawn Of The Dinosaurs\\Ice Age 3 Dawn Of The Dinosaurs (2009).avi\nFormat                           : AVI\nFormat/Info                      : Audio Video Interleave\nFile size                        : 699 MiB\nDuration                         : 1h 30mn\nOverall bit rate                 : 1 084 Kbps\nWriting application              : VirtualDubMod 1.5.10.2 (build 2540/release)\nWriting library                  : VirtualDubMod build 2540/release\n\nVideo\nID                               : 0\nFormat                           : MPEG-4 Visual\nFormat profile                   : Advanced Simple@L5\nFormat settings, BVOP            : 2\nFormat settings, QPel            : No\nFormat settings, GMC             : No warppoints\nFormat settings, Matrix          : Default (H.263)\nCodec ID                         : XVID\nCodec ID/Hint                    : XviD\nDuration                         : 1h 30mn\nBit rate                         : 947 Kbps\nWidth                            : 640 pixels\nHeight                           : 352 pixels\nDisplay aspect ratio             : 16:9\nFrame rate                       : 25.000 fps\nColor space                      : YUV\nChroma subsampling               : 4:2:0\nBit depth                        : 8 bits\nScan type                        : Progressive\nCompression mode                 : Lossy\nBits/(Pixel*Frame)               : 0.168\nStream size                      : 611 MiB (87%)\nWriting library                  : XviD 1.1.2 (UTC 2006-11-01)\n\nAudio\nID                               : 1\nFormat                           : MPEG Audio\nFormat version                   : Version 1\nFormat profile                   : Layer 3\nMode                             : Joint stereo\nMode extension                   : MS Stereo\nCodec ID                         : 55\nCodec ID/Hint                    : MP3\nDuration                         : 1h 30mn\nBit rate mode                    : Variable\nBit rate                         : 124 Kbps\nChannel(s)                       : 2 channels\nSampling rate                    : 48.0 KHz\nCompression mode                 : Lossy\nStream size                      : 80.3 MiB (11%)\nAlignment                        : Aligned on interleaves\nInterleave, duration             : 24 ms (0.60 video frame)\nInterleave, preload duration     : 154 ms\n\n","torrent":{"xt":"urn:btih:9f08c5291fc5b5e2b73bb7ae39797fc1993b4317","amp;dn":"Ice+Age+-+Trilogy+%5BDVDRip%5D","amp;tr":["udp%3A%2F%2Ftracker.openbittorrent.com%3A80","udp%3A%2F%2Fopen.demonii.com%3A1337","udp%3A%2F%2Ftracker.coppersurfer.tk%3A6969","udp%3A%2F%2Fexodus.desync.com%3A6969"],"infoHash":"9f08c5291fc5b5e2b73bb7ae39797fc1993b4317","infoHashBuffer":{"type":"Buffer","data":[159,8,197,41,31,197,181,226,183,59,183,174,57,121,127,193,153,59,67,23]},"announce":[],"urlList":[]}}